# xmcd CD database file
#
# Track frame offsets:
#	150
#	22450
#	39183
#	83390
#	114393
#	142143
#	163878
#
# Disc length: 2547 seconds
#
# Revision: 1
# Processed by: cddbd v1.5.1PL0 Copyright (c) Steve Scherf et al.
# Submitted via: CDex 1.51
#
DISCID=5709f107
DTITLE=B'z - DA・KA・RA・SO・NO・TE・O・HA・NA・SHI・TE
DYEAR=1900
DGENRE=Soundtrack
TTITLE0=KOMACHI-ANGEL RED HOT STYLE
TTITLE1=I WANNA DANCE
TTITLE2=DA・KA・RA・SO・NO・TE・O・HA・NA・SHI・TE type?
TTITLE3=BAD COMMUNICATION
TTITLE4=OUT OF THE TRAIN
TTITLE5=LADY GO ROUND
TTITLE6=DA・KA・RA・SO・NO・TE・O・HA・NA・SHI・TE type?
EXTD=
EXTT0=
EXTT1=
EXTT2=
EXTT3=
EXTT4=
EXTT5=
EXTT6=
PLAYORDER=
